<?xml version="1.0" encoding="utf-8"?>
<!-- Generator: Adobe Illustrator 16.0.0, SVG Export Plug-In . SVG Version: 6.00 Build 0)  -->
<!DOCTYPE svg PUBLIC "-//W3C//DTD SVG 1.1//EN" "http://www.w3.org/Graphics/SVG/1.1/DTD/svg11.dtd">
<svg version="1.1" id="Layer_1" xmlns="http://www.w3.org/2000/svg" xmlns:xlink="http://www.w3.org/1999/xlink" x="0px" y="0px"
	 width="150px" height="20px" viewBox="-674.5 710.5 150 20" enable-background="new -674.5 710.5 150 20" xml:space="preserve">
<g>
	<path fill="#17171F" d="M-654.34,722.323c0-1.97-1.097-2.998-2.752-2.998c-1.679,0-2.775,1.028-2.775,2.998v6.85H-663v-6.85
		c0-1.97-1.096-2.998-2.752-2.998c-1.701,0-2.797,1.028-2.797,2.998v6.85h-3.133v-12.399h3.133v1.5
		c0.784-1.029,2.103-1.678,3.647-1.678c1.925,0,3.514,0.826,4.363,2.371c0.806-1.409,2.439-2.371,4.252-2.371
		c2.977,0,5.081,1.878,5.081,5.303v7.274h-3.133V722.323z"/>
	<path fill="#34EACD" d="M-650.804,713.462c0-1.029,0.806-1.835,1.925-1.835c1.096,0,1.924,0.806,1.924,1.835
		s-0.828,1.835-1.924,1.835C-649.998,715.297-650.804,714.491-650.804,713.462z"/>
	<rect x="-650.469" y="716.773" fill="#17171F" width="3.134" height="12.399"/>
	<path fill="#17171F" d="M-637.895,722.323c0-1.992-1.097-3.066-2.753-3.066c-1.7,0-2.796,1.074-2.796,3.066v6.85h-3.134v-12.399
		h3.134v1.545c0.805-1.052,2.148-1.723,3.736-1.723c2.887,0,4.945,1.878,4.945,5.303v7.274h-3.132V722.323z"/>
	<path fill="#17171F" d="M-627.709,729.373c-3.581,0-6.289-2.506-6.289-6.4c0-3.916,2.796-6.401,6.377-6.401
		s6.378,2.485,6.378,6.401C-621.242,726.867-624.107,729.373-627.709,729.373z M-627.709,726.643c1.656,0,3.244-1.207,3.244-3.67
		c0-2.484-1.543-3.67-3.2-3.67c-1.656,0-3.154,1.186-3.154,3.67C-630.82,725.436-629.388,726.643-627.709,726.643z"/>
	<path fill="#17171F" d="M-615.467,729.373c-3.111,0-5.281-1.813-5.416-4.118h3.155c0.113,0.941,0.985,1.657,2.238,1.657
		c1.231,0,1.902-0.561,1.902-1.276c0-2.216-7.004-0.806-7.004-5.348c0-2.06,1.835-3.717,4.9-3.717c2.999,0,4.812,1.635,4.99,4.098
		h-2.998c-0.09-0.964-0.851-1.612-2.081-1.612c-1.164,0-1.769,0.471-1.769,1.187c0,2.261,6.87,0.85,6.96,5.393
		C-610.588,727.761-612.446,729.373-615.467,729.373z"/>
	<path fill="#17171F" d="M-604.01,716.571c3.088,0,5.169,1.612,5.841,4.388h-3.38c-0.358-1.052-1.186-1.725-2.483-1.725
		c-1.746,0-2.909,1.322-2.909,3.738c0,2.417,1.163,3.715,2.909,3.715c1.298,0,2.104-0.581,2.483-1.7h3.38
		c-0.672,2.641-2.753,4.386-5.841,4.386c-3.581,0-6.132-2.506-6.132-6.4C-610.142,719.079-607.591,716.571-604.01,716.571z"/>
	<path fill="#17171F" d="M-594.27,729.173h-3.133v-12.399h3.133v1.926c0.784-1.277,2.082-2.104,3.805-2.104v3.289h-0.829
		c-1.857,0-2.977,0.717-2.977,3.11V729.173z"/>
	<path fill="#17171F" d="M-584.143,729.373c-3.602,0-6.221-2.506-6.221-6.4c0-3.916,2.551-6.401,6.221-6.401
		c3.581,0,6.109,2.44,6.109,6.133c0,0.403-0.022,0.806-0.089,1.209h-9.063c0.157,1.835,1.41,2.864,2.977,2.864
		c1.342,0,2.081-0.671,2.483-1.5h3.379C-579.019,727.561-581.077,729.373-584.143,729.373z M-587.163,721.809h5.885
		c-0.045-1.633-1.343-2.662-2.954-2.662C-585.731,719.146-586.918,720.108-587.163,721.809z"/>
	<path fill="#17171F" d="M-571.625,716.571c1.992,0,3.357,0.941,4.095,1.97v-1.768h3.155v12.399h-3.155v-1.813
		c-0.738,1.072-2.148,2.013-4.117,2.013c-3.134,0-5.64-2.573-5.64-6.445C-577.287,719.057-574.781,716.571-571.625,716.571z
		 M-570.819,719.325c-1.678,0-3.267,1.254-3.267,3.603c0,2.35,1.588,3.692,3.267,3.692c1.724,0,3.29-1.298,3.29-3.647
		C-567.53,720.624-569.096,719.325-570.819,719.325z"/>
	<path fill="#17171F" d="M-562.167,719.348h-1.477v-2.574h1.477v-3.066h3.156v3.066h2.775v2.574h-2.775v5.997
		c0,0.829,0.335,1.187,1.32,1.187h1.455v2.642h-1.969c-2.372,0-3.961-1.009-3.961-3.851V719.348z"/>
	<path fill="#34EACD" d="M-555.82,713.462c0-1.029,0.805-1.835,1.924-1.835c1.098,0,1.925,0.806,1.925,1.835
		s-0.827,1.835-1.925,1.835C-555.015,715.297-555.82,714.491-555.82,713.462z"/>
	<rect x="-555.484" y="716.773" fill="#17171F" width="3.133" height="12.399"/>
	<path fill="#17171F" d="M-548.237,716.773l3.133,9.511l3.133-9.511h3.335l-4.588,12.399h-3.804l-4.566-12.399H-548.237z"/>
	<path fill="#17171F" d="M-533.425,729.373c-3.604,0-6.222-2.506-6.222-6.4c0-3.916,2.551-6.401,6.222-6.401
		c3.58,0,6.108,2.44,6.108,6.133c0,0.403-0.022,0.806-0.089,1.209h-9.063c0.156,1.835,1.409,2.864,2.976,2.864
		c1.343,0,2.081-0.671,2.483-1.5h3.38C-528.301,727.561-530.36,729.373-533.425,729.373z M-536.447,721.809h5.885
		c-0.045-1.633-1.343-2.662-2.954-2.662C-535.015,719.146-536.201,720.108-536.447,721.809z"/>
</g>
</svg>
